<svg width="64pt" height="64pt" viewBox="0 0 22.578 22.578" xmlns="http://www.w3.org/2000/svg"><g stroke-width=".811" color="#000"><path style="-inkscape-stroke:none" d="M11.29.969C5.595.969.97 5.594.97 11.289s4.625 10.32 10.32 10.32 10.318-4.625 10.318-10.32S16.985.969 11.29.969z" fill="#2276bc"/><path style="-inkscape-stroke:none" d="M11.29.969a10.306 10.306 0 00-8.208 4.069 10.27 10.27 0 016.25-2.112c5.696 0 10.318 4.625 10.319 10.32 0 2.349-.787 4.516-2.111 6.252a10.307 10.307 0 004.068-8.21c0-5.694-4.623-10.32-10.318-10.32z" fill="#1d5c87"/><path style="-inkscape-stroke:none" d="M13.084 13.31a.326.326 0 00-.46.03c-.686.791-1.064 1.884-1.067 3.025 0 2.255 1.471 4.153 3.379 4.153a.326.326 0 00.004 0 2.897 2.897 0 001.486-.426.326.326 0 00.108-.45.326.326 0 00-.448-.109 2.24 2.24 0 01-1.15.333c-1.465 0-2.726-1.528-2.726-3.501.002-.996.34-1.941.908-2.596a.326.326 0 00-.034-.46z" fill="#d0e2ee"/><path style="-inkscape-stroke:none" d="M19.76 13.22a.326.326 0 00-.108.448c.221.364.331.755.333 1.15 0 1.465-1.527 2.726-3.501 2.726-.996-.002-1.941-.34-2.596-.907a.326.326 0 00-.46.033.326.326 0 00.032.46c.79.686 1.881 1.064 3.021 1.067a.326.326 0 00.003 0c2.255 0 4.153-1.471 4.153-3.378a.326.326 0 000-.003 2.888 2.888 0 00-.428-1.488.326.326 0 00-.448-.108zm-6.37-1.782c-2.255 0-4.154 1.474-4.154 3.38a2.89 2.89 0 00.426 1.489.326.326 0 00.448.11.326.326 0 00.111-.447 2.231 2.231 0 01-.335-1.154c.002-1.464 1.53-2.725 3.504-2.725.994 0 1.94.335 2.595.9a.326.326 0 00.46-.033.326.326 0 00-.033-.46c-.793-.683-1.884-1.06-3.022-1.06z" fill="#d0e2ee"/><path style="-inkscape-stroke:none" d="M14.936 9.117c-.52 0-1.03.149-1.488.426a.326.326 0 00-.109.45.326.326 0 00.448.109 2.202 2.202 0 011.149-.332c1.464 0 2.728 1.527 2.728 3.5 0 .995-.336 1.94-.9 2.596a.326.326 0 00.033.46.326.326 0 00.46-.034c.682-.792 1.059-1.883 1.06-3.021 0-2.255-1.474-4.154-3.381-4.154z" fill="#d0e2ee"/><path style="-inkscape-stroke:none" d="M14.936 13.372c-.795 0-1.445.65-1.445 1.444 0 .795.65 1.447 1.445 1.447.794 0 1.447-.652 1.447-1.447a1.45 1.45 0 00-1.447-1.444z" fill="#d0e2ee"/><path style="-inkscape-stroke:none" d="M13.467 17.564a.326.326 0 00-.241.06.326.326 0 00-.065.457 4.99 4.99 0 001.16 1.122.326.326 0 00.456-.084.326.326 0 00-.085-.453 4.339 4.339 0 01-1.009-.975.326.326 0 00-.216-.127zm5.771-2.586a.326.326 0 00-.452.084 4.351 4.351 0 01-.978 1.009.326.326 0 00-.065.457.326.326 0 00.458.065 5 5 0 001.122-1.163.326.326 0 00-.085-.452zm-7.324-1.998a.326.326 0 00-.241.062 4.992 4.992 0 00-1.122 1.163.326.326 0 00.084.452.326.326 0 00.453-.084 4.32 4.32 0 01.975-1.009.326.326 0 00.067-.457.326.326 0 00-.216-.128zm3.638-2.548a.326.326 0 00-.455.084.326.326 0 00.084.453 4.35 4.35 0 011.009.977.326.326 0 00.458.065.326.326 0 00.065-.457 4.99 4.99 0 00-1.161-1.122zm3.433 7.728a5.529 5.529 0 01-2.022.543.326.326 0 00-.301.349.326.326 0 00.349.3c.294-.021.585-.063.868-.124.394-.328.764-.685 1.106-1.068zm-8.282-1.62a.326.326 0 00-.301.35c.096 1.305.585 2.524 1.374 3.428a.326.326 0 00.46.032.326.326 0 00.032-.46c-.686-.785-1.13-1.876-1.216-3.049a.326.326 0 00-.35-.3zm2.159-6.258c-1.305.097-2.522.586-3.426 1.375a.326.326 0 00-.031.463.326.326 0 00.46.03c.784-.684 1.873-1.131 3.046-1.217a.326.326 0 00.3-.35.326.326 0 00-.349-.3zm5.011-1.076a.326.326 0 00-.238.08.326.326 0 00-.032.46c.686.784 1.132 1.873 1.219 3.045a.326.326 0 00.349.301.326.326 0 00.3-.349c-.096-1.305-.587-2.523-1.376-3.426a.326.326 0 00-.222-.11z" fill="#f5f6e8"/><path style="-inkscape-stroke:none" d="M6.26 2.279a10.321 10.321 0 00-5.289 8.92h6.693c.938 0 1.705-.765 1.705-1.704 0-.938-.767-1.704-1.705-1.704h-.732A1.043 1.043 0 015.88 6.738c0-.588.463-1.052 1.052-1.052h4.432c.939 0 1.705-.766 1.705-1.705 0-.938-.766-1.702-1.705-1.702zM1.661 15.004a10.335 10.335 0 002.167 3.41h3.005c.938 0 1.702-.766 1.702-1.705 0-.938-.764-1.705-1.702-1.705zm14.69-10.397c-.856 0-1.557.702-1.558 1.558 0 .857.702 1.558 1.558 1.558.857 0 1.558-.701 1.558-1.558 0-.856-.701-1.558-1.558-1.558z" fill="#50b86b"/><path style="-inkscape-stroke:none" d="M16.351 4.607c-.595 0-1.115.339-1.377.833.217-.115.464-.18.725-.18.856 0 1.558.7 1.558 1.557 0 .261-.066.508-.18.725.493-.262.832-.782.832-1.377 0-.857-.701-1.558-1.558-1.558zM1.66 15.004c.086.221.18.439.28.652h4.24a1.707 1.707 0 011.483 2.54c.52-.293.873-.85.873-1.487 0-.938-.764-1.705-1.703-1.705zM5.24 2.931h5.472c.939 0 1.705.764 1.705 1.702 0 .303-.08.587-.22.833.52-.292.872-.849.872-1.485 0-.938-.766-1.702-1.705-1.702H6.26c-.353.188-.687.419-1.02.652zm.696 3.463c-.415.14-.708.529-.708.996 0 .59.463 1.053 1.051 1.053h.732c.939 0 1.705.766 1.705 1.705 0 .302-.08.586-.219.832.52-.292.872-.849.872-1.485 0-.938-.767-1.704-1.705-1.704h-.732A1.043 1.043 0 015.88 6.738c0-.121.02-.236.056-.344z" fill="#349951"/><path style="-inkscape-stroke:none" d="M14.86 13.448a1.45 1.45 0 00-1.294.803c.194-.097.411-.151.641-.151.795 0 1.448.65 1.448 1.445 0 .23-.055.449-.153.643.476-.238.805-.731.805-1.296a1.45 1.45 0 00-1.447-1.444z" fill="#a9c0d1"/></g></svg>